<svg width="799.84" height="800" fill="#000000" version="1.1" viewBox="0 0 490.1 490.2" xml:space="preserve" xmlns="http://www.w3.org/2000/svg">
<path d="m469.1 265.9c11.5 0 20.9-9.4 20.9-20.9s-9.4-20.9-20.9-20.9h-59.4v-29.1h59.4c11.5 0 20.9-9.4 20.9-20.9s-9.4-20.9-20.9-20.9h-59.4v-51.1c0-11.5-9.4-20.9-20.9-20.9h-52.1v-60.3c0-11.5-9.4-20.9-20.9-20.9s-20.9 9.4-20.9 20.9v60.5h-29.2v-60.5c0-11.5-9.4-20.9-20.9-20.9s-20.9 9.4-20.9 20.9v60.5h-28.9v-60.5c0-11.5-9.4-20.9-20.9-20.9s-20.9 9.4-20.9 20.9v60.5h-49c-11.5 0-20.9 9.4-20.9 20.9v51.1h-62.4c-11.5 0-20.9 9.4-20.9 20.9s9.4 20.9 20.9 20.9h62.6v29.2h-62.6c-11.5 0-20.9 9.4-20.9 20.9s9.4 20.9 20.9 20.9h62.6v27.8h-62.6c-11.5 0-20.9 9.4-20.9 20.9s9.4 20.9 20.9 20.9h62.6v51.1c0 11.5 9.4 20.9 20.9 20.9h49v61.5c0 11.5 9.4 20.9 20.9 20.9s20.9-9.4 20.9-20.9v-61.5h29.2v61.5c0 11.5 9.4 20.9 20.9 20.9s20.9-9.4 20.9-20.9v-61.5h28.8v61.5c0 11.5 9.4 20.9 20.9 20.9 10.4 0 19.8-9.4 20.9-20.9v-61.5h52.1c11.5 0 20.9-8.3 20.9-20.9v-51.1h59.4c11.5 0 20.9-9.4 20.9-20.9s-9.4-20.9-20.9-20.9h-59.4v-28.1z" fill="#e4e4e4"/>
</svg>
