<svg width="18" height="18" version="1.1" viewBox="0 0 18 18" xmlns="http://www.w3.org/2000/svg">
 <g fill="none" fill-rule="evenodd">
  <path d="m8.603 17.992a1 1 0 00.037-.272v-7.36a1 1 0 00-1-1h-7.36a1 1 0 00-.277.039v-7.399a2 2 0 012-2h13.997a2 2 0 012 2v13.992a2 2 0 01-2 2zm6.587-16.144.011-.007-4.088 4.088-.007-2.578a.475.475 0 00-.14-.335.474.474 0 00-.336-.14l-.4-.001a.468.468 0 00-.473.471l.007 4.414c0 .126.05.245.14.334.09.09.209.14.335.14l4.414.008a.468.468 0 00.333-.138.468.468 0 00.139-.334l-.001-.4a.47.47 0 00-.47-.47h-2.598l4.097-4.097a.49.49 0 00-.005-.683l-.284-.284a.48.48 0 00-.674.012z" fill="#e4e4e4"/>
  <rect x=".75" y="11.55" width="5.7" height="5.7" rx="1" stroke="#e4e4e4" stroke-width="1.5"/>
 </g>
</svg>
