<svg width="18" height="18" version="1.1" viewBox="0 0 18 18" xmlns="http://www.w3.org/2000/svg">
 <g fill="#e4e4e4" fill-rule="evenodd">
  <path d="m8.668 17.992v.008h-5.75l-.008-.008h-.907a2 2 0 01-2-2v-.88l-.003-.002v-5.734h.003v-7.376a2 2 0 012-2h13.997a2 2 0 012 2v13.992a2 2 0 01-2 2zm0 0v-1.433h7.854v-15.144h-15.075v7.96h-1.444v5.737l2.907 2.88z"/>
  <rect y="10.8" width="7.2" height="7.2" rx="1"/>
  <path d="m9.13 10.065-.01.008 4.087-4.089.007 2.578c0 .126.052.246.141.336.09.09.21.14.336.14h.4a.468.468 0 00.473-.471l-.007-4.413a.47.47 0 00-.14-.335.47.47 0 00-.336-.14l-4.413-.009a.468.468 0 00-.334.138.468.468 0 00-.138.334v.4a.47.47 0 00.47.47h2.599l-4.098 4.098a.49.49 0 00.005.682l.284.284a.48.48 0 00.675-.012z" fill-rule="nonzero"/>
 </g>
</svg>
